# xmcd
#
# Track frame offsets:
#	150
#	20007
#	59530
#	95235
#	128962
#	164717
#	202900
#	237510
#
# Disc length: 3488 seconds
#
# Revision: 1
# Processed by: cddbd v1.5.1PL0 Copyright (c) Steve Scherf et al.
# Submitted via: CDex 1.50Beta5
#
DISCID=770d9e08
DTITLE=Various Artist - 魔術士オーフェン 無謀編 オリジナルラジオドラマ2
DYEAR=1900
DGENRE=Anime
TTITLE0=7 HOUSE/そんでもって KISS
TTITLE1=第1話
TTITLE2=第2話
TTITLE3=第3話
TTITLE4=第4話
TTITLE5=第5話
TTITLE6=第6話
TTITLE7=三佳千夏/Love,Yes I do!
EXTD=
EXTT0=
EXTT1=
EXTT2=
EXTT3=
EXTT4=
EXTT5=
EXTT6=
EXTT7=
PLAYORDER=
